<svg width="134" height="109" viewBox="0 0 134 109" fill="none" xmlns="http://www.w3.org/2000/svg">
<g clip-path="url(#clip0_2_16)">
<path d="M52.9223 49.4717C52.9223 61.9115 43.2603 71.9959 31.3415 71.9959C19.4228 71.9959 9.76074 61.9115 9.76074 49.4717C9.76074 37.0318 19.4228 26.9474 31.3415 26.9474C43.2603 26.9474 52.9223 37.0318 52.9223 49.4717Z" stroke="white" stroke-width="5.99984" stroke-linecap="round" stroke-linejoin="round"/>
<path d="M54.1658 2.75003L31.3423 49.872" stroke="white" stroke-width="5" stroke-linecap="round" stroke-linejoin="round"/>
<path d="M33.2808 49.4892C33.2808 50.6046 32.4144 51.5088 31.3458 51.5088C30.2772 51.5088 29.4109 50.6046 29.4109 49.4892C29.4109 48.3738 30.2772 47.4696 31.3458 47.4696C32.4144 47.4696 33.2808 48.3738 33.2808 49.4892Z" fill="white" stroke="white" stroke-width="5.9999" stroke-linecap="round" stroke-linejoin="round"/>
<path d="M48.5408 18.05C69.1836 49.158 69.3588 49.422 69.3588 49.422" stroke="white" stroke-width="5" stroke-linecap="round" stroke-linejoin="round"/>
<path d="M54.4469 2.54996H63.543" stroke="white" stroke-width="5" stroke-linecap="round" stroke-linejoin="round"/>
<path d="M124.172 49.4717C124.172 61.9115 114.51 71.9959 102.592 71.9959C90.6728 71.9959 81.0107 61.9115 81.0107 49.4717C81.0107 37.0318 90.6728 26.9474 102.592 26.9474C114.51 26.9474 124.172 37.0318 124.172 49.4717Z" stroke="white" stroke-width="5.99984" stroke-linecap="round" stroke-linejoin="round"/>
<path d="M69.1658 49.05L77.8492 16.5409" stroke="white" stroke-width="5" stroke-linecap="round" stroke-linejoin="round"/>
<path d="M71.2283 17.25L76.4646 16.0431L84.074 15.8474" stroke="white" stroke-width="6" stroke-linecap="round" stroke-linejoin="round"/>
<path d="M69.6345 49.45H103.308" stroke="white" stroke-width="5" stroke-linecap="round" stroke-linejoin="round"/>
<path d="M104.493 49.4892C104.493 50.6046 103.627 51.5088 102.558 51.5088C101.49 51.5088 100.623 50.6046 100.623 49.4892C100.623 48.3738 101.49 47.4696 102.558 47.4696C103.627 47.4696 104.493 48.3738 104.493 49.4892Z" fill="white" stroke="white" stroke-width="5.9999" stroke-linecap="round" stroke-linejoin="round"/>
</g>
<path d="M2.075 103V85.5H10.625C12.825 85.5 14.475 85.9167 15.575 86.75C16.6917 87.5833 17.25 88.6833 17.25 90.05C17.25 90.9667 17.025 91.7667 16.575 92.45C16.125 93.1167 15.5083 93.6333 14.725 94C13.9417 94.3667 13.0417 94.55 12.025 94.55L12.5 93.525C13.6 93.525 14.575 93.7083 15.425 94.075C16.275 94.425 16.9333 94.95 17.4 95.65C17.8833 96.35 18.125 97.2083 18.125 98.225C18.125 99.725 17.5333 100.9 16.35 101.75C15.1667 102.583 13.425 103 11.125 103H2.075ZM6.1 99.95H10.825C11.875 99.95 12.6667 99.7833 13.2 99.45C13.75 99.1 14.025 98.55 14.025 97.8C14.025 97.0667 13.75 96.525 13.2 96.175C12.6667 95.8083 11.875 95.625 10.825 95.625H5.8V92.675H10.125C11.1083 92.675 11.8583 92.5083 12.375 92.175C12.9083 91.825 13.175 91.3 13.175 90.6C13.175 89.9167 12.9083 89.4083 12.375 89.075C11.8583 88.725 11.1083 88.55 10.125 88.55H6.1V99.95ZM20.9162 103V89.55H24.8162V103H20.9162ZM22.8662 87.675C22.1495 87.675 21.5662 87.4667 21.1162 87.05C20.6662 86.6333 20.4412 86.1167 20.4412 85.5C20.4412 84.8833 20.6662 84.3667 21.1162 83.95C21.5662 83.5333 22.1495 83.325 22.8662 83.325C23.5829 83.325 24.1662 83.525 24.6162 83.925C25.0662 84.3083 25.2912 84.8083 25.2912 85.425C25.2912 86.075 25.0662 86.6167 24.6162 87.05C24.1829 87.4667 23.5995 87.675 22.8662 87.675ZM31.6607 100.25L31.7607 95.5L38.0357 89.55H42.6857L36.6607 95.675L34.6357 97.325L31.6607 100.25ZM28.4357 103V84.45H32.3357V103H28.4357ZM38.4607 103L33.9107 97.35L36.3607 94.325L43.1857 103H38.4607ZM51.0531 103.2C49.5198 103.2 48.1698 102.9 47.0031 102.3C45.8531 101.7 44.9615 100.883 44.3281 99.85C43.6948 98.8 43.3781 97.6083 43.3781 96.275C43.3781 94.925 43.6865 93.7333 44.3031 92.7C44.9365 91.65 45.7948 90.8333 46.8781 90.25C47.9615 89.65 49.1865 89.35 50.5531 89.35C51.8698 89.35 53.0531 89.6333 54.1031 90.2C55.1698 90.75 56.0115 91.55 56.6281 92.6C57.2448 93.6333 57.5531 94.875 57.5531 96.325C57.5531 96.475 57.5448 96.65 57.5281 96.85C57.5115 97.0333 57.4948 97.2083 57.4781 97.375H46.5531V95.1H55.4281L53.9281 95.775C53.9281 95.075 53.7865 94.4667 53.5031 93.95C53.2198 93.4333 52.8281 93.0333 52.3281 92.75C51.8281 92.45 51.2448 92.3 50.5781 92.3C49.9115 92.3 49.3198 92.45 48.8031 92.75C48.3031 93.0333 47.9115 93.4417 47.6281 93.975C47.3448 94.4917 47.2031 95.1083 47.2031 95.825V96.425C47.2031 97.1583 47.3615 97.8083 47.6781 98.375C48.0115 98.925 48.4698 99.35 49.0531 99.65C49.6531 99.9333 50.3531 100.075 51.1531 100.075C51.8698 100.075 52.4948 99.9667 53.0281 99.75C53.5781 99.5333 54.0781 99.2083 54.5281 98.775L56.6031 101.025C55.9865 101.725 55.2115 102.267 54.2781 102.65C53.3448 103.017 52.2698 103.2 51.0531 103.2ZM64.6746 103.2C63.5246 103.2 62.4163 103.067 61.3496 102.8C60.2996 102.517 59.4663 102.167 58.8496 101.75L60.1496 98.95C60.7663 99.3333 61.4913 99.65 62.3246 99.9C63.1746 100.133 64.0079 100.25 64.8246 100.25C65.7246 100.25 66.3579 100.142 66.7246 99.925C67.1079 99.7083 67.2996 99.4083 67.2996 99.025C67.2996 98.7083 67.1496 98.475 66.8496 98.325C66.5663 98.1583 66.1829 98.0333 65.6996 97.95C65.2163 97.8667 64.6829 97.7833 64.0996 97.7C63.5329 97.6167 62.9579 97.5083 62.3746 97.375C61.7913 97.225 61.2579 97.0083 60.7746 96.725C60.2913 96.4417 59.8996 96.0583 59.5996 95.575C59.3163 95.0917 59.1746 94.4667 59.1746 93.7C59.1746 92.85 59.4163 92.1 59.8996 91.45C60.3996 90.8 61.1163 90.2917 62.0496 89.925C62.9829 89.5417 64.0996 89.35 65.3996 89.35C66.3163 89.35 67.2496 89.45 68.1996 89.65C69.1496 89.85 69.9413 90.1417 70.5746 90.525L69.2746 93.3C68.6246 92.9167 67.9663 92.6583 67.2996 92.525C66.6496 92.375 66.0163 92.3 65.3996 92.3C64.5329 92.3 63.8996 92.4167 63.4996 92.65C63.0996 92.8833 62.8996 93.1833 62.8996 93.55C62.8996 93.8833 63.0413 94.1333 63.3246 94.3C63.6246 94.4667 64.0163 94.6 64.4996 94.7C64.9829 94.8 65.5079 94.8917 66.0746 94.975C66.6579 95.0417 67.2413 95.15 67.8246 95.3C68.4079 95.45 68.9329 95.6667 69.3996 95.95C69.8829 96.2167 70.2746 96.5917 70.5746 97.075C70.8746 97.5417 71.0246 98.1583 71.0246 98.925C71.0246 99.7583 70.7746 100.5 70.2746 101.15C69.7746 101.783 69.0496 102.283 68.0996 102.65C67.1663 103.017 66.0246 103.2 64.6746 103.2Z" fill="white"/>
<path d="M73.7059 103V85.5H81.2809C82.8475 85.5 84.1975 85.7583 85.3309 86.275C86.4642 86.775 87.3392 87.5 87.9559 88.45C88.5725 89.4 88.8809 90.5333 88.8809 91.85C88.8809 93.15 88.5725 94.275 87.9559 95.225C87.3392 96.1583 86.4642 96.875 85.3309 97.375C84.1975 97.875 82.8475 98.125 81.2809 98.125H75.9559L77.7559 96.35V103H73.7059ZM84.8309 103L80.4559 96.65H84.7809L89.2059 103H84.8309ZM77.7559 96.8L75.9559 94.9H81.0559C82.3059 94.9 83.2392 94.6333 83.8559 94.1C84.4725 93.55 84.7809 92.8 84.7809 91.85C84.7809 90.8833 84.4725 90.1333 83.8559 89.6C83.2392 89.0667 82.3059 88.8 81.0559 88.8H75.9559L77.7559 86.875V96.8ZM98.4896 103.2C96.9563 103.2 95.6063 102.9 94.4396 102.3C93.2896 101.7 92.398 100.883 91.7646 99.85C91.1313 98.8 90.8146 97.6083 90.8146 96.275C90.8146 94.925 91.123 93.7333 91.7396 92.7C92.373 91.65 93.2313 90.8333 94.3146 90.25C95.398 89.65 96.623 89.35 97.9896 89.35C99.3063 89.35 100.49 89.6333 101.54 90.2C102.606 90.75 103.448 91.55 104.065 92.6C104.681 93.6333 104.99 94.875 104.99 96.325C104.99 96.475 104.981 96.65 104.965 96.85C104.948 97.0333 104.931 97.2083 104.915 97.375H93.9896V95.1H102.865L101.365 95.775C101.365 95.075 101.223 94.4667 100.94 93.95C100.656 93.4333 100.265 93.0333 99.7646 92.75C99.2646 92.45 98.6813 92.3 98.0146 92.3C97.348 92.3 96.7563 92.45 96.2396 92.75C95.7396 93.0333 95.348 93.4417 95.0646 93.975C94.7813 94.4917 94.6396 95.1083 94.6396 95.825V96.425C94.6396 97.1583 94.798 97.8083 95.1146 98.375C95.448 98.925 95.9063 99.35 96.4896 99.65C97.0896 99.9333 97.7896 100.075 98.5896 100.075C99.3063 100.075 99.9313 99.9667 100.465 99.75C101.015 99.5333 101.515 99.2083 101.965 98.775L104.04 101.025C103.423 101.725 102.648 102.267 101.715 102.65C100.781 103.017 99.7063 103.2 98.4896 103.2ZM115.761 89.35C116.828 89.35 117.778 89.5667 118.611 90C119.461 90.4167 120.128 91.0667 120.611 91.95C121.094 92.8167 121.336 93.9333 121.336 95.3V103H117.436V95.9C117.436 94.8167 117.194 94.0167 116.711 93.5C116.244 92.9833 115.578 92.725 114.711 92.725C114.094 92.725 113.536 92.8583 113.036 93.125C112.553 93.375 112.169 93.7667 111.886 94.3C111.619 94.8333 111.486 95.5167 111.486 96.35V103H107.586V89.55H111.311V93.275L110.611 92.15C111.094 91.25 111.786 90.5583 112.686 90.075C113.586 89.5917 114.611 89.35 115.761 89.35ZM130.371 103.2C128.788 103.2 127.555 102.8 126.671 102C125.788 101.183 125.346 99.975 125.346 98.375V86.575H129.246V98.325C129.246 98.8917 129.396 99.3333 129.696 99.65C129.996 99.95 130.405 100.1 130.921 100.1C131.538 100.1 132.063 99.9333 132.496 99.6L133.546 102.35C133.146 102.633 132.663 102.85 132.096 103C131.546 103.133 130.971 103.2 130.371 103.2ZM123.271 92.85V89.85H132.596V92.85H123.271Z" fill="#0075B9"/>
<defs>
<clipPath id="clip0_2_16">
<rect width="120" height="75" fill="white" transform="translate(7)"/>
</clipPath>
</defs>
</svg>
